<?xml version="1.0" standalone="no"?>
<!DOCTYPE svg PUBLIC "-//W3C//DTD SVG 20010904//EN"
 "http://www.w3.org/TR/2001/REC-SVG-20010904/DTD/svg10.dtd">
<svg version="1.0" xmlns="http://www.w3.org/2000/svg"
 width="16.000000pt" height="16.000000pt" viewBox="0 0 16.000000 16.000000"
 preserveAspectRatio="xMidYMid meet">
<metadata>
Created by potrace 1.11, written by Peter Selinger 2001-2013
</metadata>
<g transform="translate(0.000000,16.000000) scale(0.005333,-0.005333)"
fill="#000000" stroke="none">
<path d="M1315 2989 c-100 -13 -266 -55 -343 -85 -299 -118 -557 -326 -725
-584 -109 -169 -175 -328 -219 -533 -32 -148 -32 -427 1 -577 65 -304 206
-563 423 -778 208 -205 460 -340 758 -403 151 -33 429 -33 580 0 148 31 267
74 400 142 400 207 683 583 781 1039 33 150 33 429 1 577 -133 617 -590 1068
-1204 1188 -99 20 -355 28 -453 14z m428 -135 c272 -46 525 -180 727 -383 203
-204 330 -440 379 -706 41 -225 36 -394 -19 -610 -28 -113 -97 -287 -129 -327
-17 -20 -18 -20 -73 42 -70 76 -94 127 -108 222 -31 207 -43 274 -71 391 l-31
128 45 42 c67 63 91 117 91 202 1 96 -36 176 -114 248 -93 87 -198 109 -298
62 l-52 -24 -48 28 c-305 179 -728 185 -1049 16 l-82 -43 -43 21 c-67 34 -167
31 -237 -8 -108 -60 -172 -163 -179 -287 -5 -95 15 -144 88 -212 l49 -46 -15
-49 c-27 -94 -62 -266 -79 -396 -20 -154 -40 -202 -120 -298 l-58 -68 -18 28
c-39 58 -102 218 -129 328 -36 140 -53 302 -45 415 26 361 158 653 405 901
235 236 517 367 865 403 68 7 255 -4 348 -20z m1 -699 c103 -26 196 -65 279
-119 32 -20 67 -36 78 -36 11 0 37 13 57 29 49 38 73 44 124 31 90 -25 168
-148 148 -235 -10 -43 -28 -65 -97 -117 -29 -21 -53 -46 -53 -56 0 -9 13 -63
29 -118 32 -112 63 -271 86 -439 19 -138 48 -199 148 -316 l74 -85 -47 -60
c-25 -32 -87 -97 -136 -143 -188 -176 -403 -286 -667 -343 -145 -30 -389 -30
-534 0 -266 57 -481 168 -671 348 -51 48 -112 112 -136 143 l-44 56 60 64
c127 134 150 190 183 445 9 65 32 179 52 255 19 75 38 152 40 173 5 39 -3 51
-67 91 -81 52 -101 132 -54 225 58 117 182 154 254 77 33 -35 63 -31 137 16
108 67 254 119 396 139 92 13 258 2 361 -25z"/>
<path d="M1111 1764 c-44 -56 -31 -151 23 -175 75 -35 128 111 64 178 -28 30
-62 29 -87 -3z"/>
<path d="M1801 1764 c-45 -57 -23 -166 36 -180 49 -13 97 71 80 138 -9 34 -44
68 -72 68 -14 0 -32 -11 -44 -26z"/>
<path d="M850 1549 c-95 -38 -74 -128 34 -144 52 -8 107 13 131 49 16 24 16
28 0 52 -30 46 -107 66 -165 43z"/>
<path d="M2040 1549 c-95 -38 -74 -128 34 -144 52 -8 107 13 131 49 16 24 16
28 0 52 -30 46 -107 66 -165 43z"/>
<path d="M1428 1509 c-15 -6 -30 -19 -33 -29 -7 -22 14 -67 44 -94 30 -27 28
-81 -3 -101 -40 -27 -87 -28 -131 -6 -48 26 -62 26 -74 3 -13 -25 11 -60 55
-78 50 -21 114 -17 167 10 l47 23 47 -23 c58 -30 122 -31 179 -3 49 23 64 53
40 77 -14 14 -20 14 -62 -7 -33 -17 -56 -22 -81 -18 -90 15 -109 71 -47 139
42 47 43 85 4 105 -29 15 -113 16 -152 2z"/>
</g>
</svg>
